<?xml version="1.0" encoding="UTF-8" standalone="no"?>
<svg
   xmlns:dc="http://purl.org/dc/elements/1.1/"
   xmlns:cc="http://creativecommons.org/ns#"
   xmlns:rdf="http://www.w3.org/1999/02/22-rdf-syntax-ns#"
   xmlns:svg="http://www.w3.org/2000/svg"
   xmlns="http://www.w3.org/2000/svg"
   xmlns:xlink="http://www.w3.org/1999/xlink"
   xmlns:sodipodi="http://sodipodi.sourceforge.net/DTD/sodipodi-0.dtd"
   xmlns:inkscape="http://www.inkscape.org/namespaces/inkscape"
   width="500"
   height="500"
   viewBox="0 0 132.292 132.292"
   id="svg1658"
   version="1.1"
   sodipodi:docname="laptopAnimation-min.svg"
   inkscape:version="0.92.3 (2405546, 2018-03-11)">
  <metadata
     id="metadata78">
    <rdf:RDF>
      <cc:Work
         rdf:about="">
        <dc:format>image/svg+xml</dc:format>
        <dc:type
           rdf:resource="http://purl.org/dc/dcmitype/StillImage" />
      </cc:Work>
    </rdf:RDF>
  </metadata>
  <sodipodi:namedview
     pagecolor="#ffffff"
     bordercolor="#666666"
     borderopacity="1"
     objecttolerance="10"
     gridtolerance="10"
     guidetolerance="10"
     inkscape:pageopacity="0"
     inkscape:pageshadow="2"
     inkscape:window-width="1920"
     inkscape:window-height="1001"
     id="namedview76"
     showgrid="false"
     inkscape:zoom="0.472"
     inkscape:cx="250"
     inkscape:cy="250"
     inkscape:window-x="-9"
     inkscape:window-y="-9"
     inkscape:window-maximized="1"
     inkscape:current-layer="svg1658" />
  <defs
     id="defs1652">
    <pattern
       xlink:href="#Wavy"
       id="pattern4792"
       patternTransform="translate(-133.763 37.836)" />
    <pattern
       id="Wavy"
       height="5.181"
       width="30.066"
       patternUnits="userSpaceOnUse">
      <path
         id="path2606"
         d="M7.597.061C5.079-.187 2.656.302-.01 1.788v1.273c2.783-1.63 5.183-2.009 7.482-1.781 2.298.228 4.497 1.081 6.781 1.938 4.567 1.713 9.551 3.458 15.813-.157l-.004-1.273c-6.44 3.709-10.816 1.982-15.371.273-2.278-.854-4.576-1.75-7.094-2z" />
    </pattern>
  </defs>
  <g
     id="layer1"
     transform="matrix(1.2639541,0,0,1.2139337,-14.459976,-207.76132)">
    <g
       id="g990"
       transform="matrix(1.02941,-0.20068,0.18763,0.96246,-190.847,78.063)">
      <path
         d="m 204.51,233.596 6.565,7.562 -1.197,0.873 5.746,10.355 c 15.554,-6.07 33.985,-10.323 38.875,-23.136 l -8.34,-10.922 -1.447,1.072 -2.277,-6.209 0.854,-2.697 1.436,3.917 c 1.93,-0.158 3.725,-0.566 4.757,-2.394 l -6.144,-12.92 c 0.733,14.827 -13.917,40.156 -41.942,33.69 l -9.142,-5.427 9.488,14.944 c 2.539,-0.037 3.854,-1.337 4.538,-3.289 l -4.588,-6.012 z"
         id="chair"
         style="fill-opacity:0;stroke:#000000;stroke-width:0.206;stroke-dasharray:295;stroke-dashoffset:295"
         inkscape:connector-curvature="0" />
      <path
         d="m 221.827,181.15 -34.824,13.198 -9.048,-22.907 0.223,-1.166 -9.03,-9.26 46.339,-17.853 -2.555,13.723 1.255,1.058 z"
         id="laptop"
         style="fill:none;stroke:#000000;stroke-width:0.206;stroke-dasharray:215;stroke-dashoffset:215"
         inkscape:connector-curvature="0" />
      <path
         d="m 182.177,170.543 -0.63,-1.72 -3.248,1.191 -8.297,-8.445 44.86,-17.745 -2.121,13.131 -3.821,1.401 0.75,1.46 z"
         id="screen"
         style="fill:url(#pattern4792);fill-opacity:0;stroke:#000000;stroke-width:0.206;stroke-dasharray:150;stroke-dashoffset:150"
         inkscape:connector-curvature="0" />
      <g
         id="keyboard"
         transform="matrix(0.72932982,-0.26735879,0.26735879,0.72932982,32.009538,90.192235)"
         style="opacity:0;fill:none;fill-opacity:0.07999998;stroke:#000000">
        <path
           id="path871"
           d="m 146.65,166.12 h 2.178"
           style="stroke-width:1.32299995"
           inkscape:connector-curvature="0" />
        <path
           id="path873"
           d="m 149.433,166.08 h 2.017"
           style="stroke-width:1.32299995"
           inkscape:connector-curvature="0" />
        <path
           id="path875"
           d="m 152.135,166.08 1.856,-0.04"
           style="stroke-width:1.32299995"
           inkscape:connector-curvature="0" />
        <path
           id="path877"
           d="m 154.636,166.04 h 2.178"
           style="stroke-width:1.32299995"
           inkscape:connector-curvature="0" />
        <path
           id="path879"
           d="m 157.46,165.959 2.056,-0.04"
           style="stroke-width:1.32299995"
           inkscape:connector-curvature="0" />
        <path
           id="path881"
           d="m 160.081,165.918 2.057,-0.08"
           style="stroke-width:1.32299995"
           inkscape:connector-curvature="0" />
        <path
           id="path883"
           d="m 162.703,165.878 h 2.178"
           style="stroke-width:1.32299995"
           inkscape:connector-curvature="0" />
        <path
           id="path885"
           d="m 165.566,165.838 2.098,-0.04"
           style="stroke-width:1.32299995"
           inkscape:connector-curvature="0" />
        <path
           id="path887"
           d="m 168.067,165.797 2.017,0.04"
           style="stroke-width:1.32299995"
           inkscape:connector-curvature="0" />
        <path
           id="path889"
           d="m 170.97,165.676 1.735,0.04"
           style="stroke-width:1.32299995"
           inkscape:connector-curvature="0" />
        <path
           id="path891"
           d="m 173.471,165.676 h 1.856"
           style="stroke-width:1.32299995"
           inkscape:connector-curvature="0" />
        <path
           id="path893"
           d="m 176.093,165.636 h 2.138"
           style="stroke-width:1.32299995"
           inkscape:connector-curvature="0" />
        <path
           id="path895"
           d="m 178.715,165.676 h 2.016"
           style="stroke-width:1.32299995"
           inkscape:connector-curvature="0" />
        <path
           id="path897"
           d="m 181.296,165.676 2.259,0.04"
           style="stroke-width:1.32299995"
           inkscape:connector-curvature="0" />
        <path
           d="m 146.489,168.625 h 2.178"
           id="path843"
           style="stroke-width:1.32299995"
           inkscape:connector-curvature="0" />
        <path
           d="m 149.272,168.585 h 2.016"
           id="path845"
           style="stroke-width:1.32299995"
           inkscape:connector-curvature="0" />
        <path
           d="m 151.974,168.585 1.855,-0.04"
           id="path847"
           style="stroke-width:1.32299995"
           inkscape:connector-curvature="0" />
        <path
           d="m 154.475,168.545 h 2.178"
           id="path849"
           style="stroke-width:1.32299995"
           inkscape:connector-curvature="0" />
        <path
           d="m 157.137,168.464 2.057,-0.04"
           id="path851"
           style="stroke-width:1.32299995"
           inkscape:connector-curvature="0" />
        <path
           d="m 159.637,168.424 2.057,-0.08"
           id="path853"
           style="stroke-width:1.32299995"
           inkscape:connector-curvature="0" />
        <path
           d="m 162.178,168.383 h 2.178"
           id="path855"
           style="stroke-width:1.32299995"
           inkscape:connector-curvature="0" />
        <path
           d="m 164.8,168.343 2.097,-0.04"
           id="path857"
           style="stroke-width:1.32299995"
           inkscape:connector-curvature="0" />
        <path
           d="m 167.26,168.303 2.017,0.04"
           id="path859"
           style="stroke-width:1.32299995"
           inkscape:connector-curvature="0" />
        <path
           d="m 170.285,168.222 1.734,0.04"
           id="path861"
           style="stroke-width:1.32299995"
           inkscape:connector-curvature="0" />
        <path
           d="m 172.463,168.343 h 1.855"
           id="path863"
           style="stroke-width:1.32299995"
           inkscape:connector-curvature="0" />
        <path
           d="m 175.085,168.262 h 2.137"
           id="path865"
           style="stroke-width:1.32299995"
           inkscape:connector-curvature="0" />
        <path
           d="m 177.747,168.222 h 2.016"
           id="path867"
           style="stroke-width:1.32299995"
           inkscape:connector-curvature="0" />
        <path
           id="path869"
           d="m 146.73,170.597 h 3.187"
           style="stroke-width:1.60000002"
           inkscape:connector-curvature="0" />
        <path
           id="path872"
           d="m 150.522,170.557 h 2.017"
           style="stroke-width:1.32299995"
           inkscape:connector-curvature="0" />
        <path
           id="path874"
           d="m 153.224,170.557 1.856,-0.04"
           style="stroke-width:1.32299995"
           inkscape:connector-curvature="0" />
        <path
           id="path876"
           d="m 155.725,170.516 h 2.178"
           style="stroke-width:1.32299995"
           inkscape:connector-curvature="0" />
        <path
           id="path878"
           d="m 158.266,170.516 2.057,-0.04"
           style="stroke-width:1.32299995"
           inkscape:connector-curvature="0" />
        <path
           id="path880"
           d="m 160.928,170.436 2.057,-0.081"
           style="stroke-width:1.32299995"
           inkscape:connector-curvature="0" />
        <path
           id="path882"
           d="m 163.59,170.395 h 2.178"
           style="stroke-width:1.32299995"
           inkscape:connector-curvature="0" />
        <path
           id="path884"
           d="m 166.05,170.315 2.098,-0.04"
           style="stroke-width:1.32299995"
           inkscape:connector-curvature="0" />
        <path
           id="path886"
           d="m 168.833,170.315 2.017,0.04"
           style="stroke-width:1.32299995"
           inkscape:connector-curvature="0" />
        <path
           id="path888"
           d="m 171.455,170.153 1.734,0.04"
           style="stroke-width:1.32299995"
           inkscape:connector-curvature="0" />
        <path
           id="path890"
           d="m 173.834,170.153 h 1.856"
           style="stroke-width:1.32299995"
           inkscape:connector-curvature="0" />
        <path
           id="path892"
           d="m 176.335,170.113 h 2.138"
           style="stroke-width:1.32299995"
           inkscape:connector-curvature="0" />
        <path
           id="path894"
           d="m 178.997,170.194 h 2.017"
           style="stroke-width:1.32299995"
           inkscape:connector-curvature="0" />
        <path
           d="m 146.932,173.138 h 2.178"
           id="path896"
           style="stroke-width:1.32299995"
           inkscape:connector-curvature="0" />
        <path
           d="m 149.957,173.098 h 2.017"
           id="path898"
           style="stroke-width:1.32299995"
           inkscape:connector-curvature="0" />
        <path
           d="m 152.498,173.057 1.856,-0.04"
           id="path900"
           style="stroke-width:1.32299995"
           inkscape:connector-curvature="0" />
        <path
           d="m 155.16,172.977 h 2.178"
           id="path902"
           style="stroke-width:1.32299995"
           inkscape:connector-curvature="0" />
        <path
           d="m 158.629,172.896 2.057,-0.04"
           id="path904"
           style="stroke-width:1.32299995"
           inkscape:connector-curvature="0" />
        <path
           d="m 161.331,172.896 2.057,-0.08"
           id="path906"
           style="stroke-width:1.32299995"
           inkscape:connector-curvature="0" />
        <path
           d="m 163.872,172.856 h 2.178"
           id="path908"
           style="stroke-width:1.32299995"
           inkscape:connector-curvature="0" />
        <path
           d="m 166.534,172.815 2.098,-0.04"
           id="path910"
           style="stroke-width:1.32299995"
           inkscape:connector-curvature="0" />
        <path
           d="m 169.519,172.775 2.016,0.04"
           id="path912"
           style="stroke-width:1.32299995"
           inkscape:connector-curvature="0" />
        <path
           d="m 177.061,172.493 1.734,0.04"
           id="path914"
           style="stroke-width:1.32299995"
           inkscape:connector-curvature="0" />
        <path
           d="m 179.723,172.493 h 1.855"
           id="path916"
           style="stroke-width:1.32299995"
           inkscape:connector-curvature="0" />
        <path
           d="m 159.92,175.437 h 2.137"
           id="path918"
           style="stroke-width:1.32299995"
           inkscape:connector-curvature="0" />
        <path
           d="m 162.945,175.397 h 2.016"
           id="path920"
           style="stroke-width:1.32299995"
           inkscape:connector-curvature="0" />
        <path
           id="path922"
           d="m 165.607,175.276 h 2.016"
           style="stroke-width:1.32299995"
           inkscape:connector-curvature="0" />
        <path
           id="path926"
           d="m 156.002,178.346 18.978,-0.243"
           style="stroke-width:2.1170001"
           inkscape:connector-curvature="0" />
        <path
           id="path928"
           d="m 180.17,167.762 h 3.407"
           style="stroke-width:2.1170001"
           inkscape:connector-curvature="0" />
        <path
           id="path936"
           d="m 181.306,170.195 1.582,0.04 v 3.123"
           style="stroke-width:1.852"
           inkscape:connector-curvature="0" />
      </g>
      <path
         d="m 182.273,206.683 c -3.465,5.442 5.882,-19.068 5.617,-19.669 -0.36,-0.82 -0.848,-2.783 -1.34,-5.563 -0.332,-1.879 -1.746,-1.703 -2.296,-2.768 -0.37,-0.716 -0.44,-1.55 -0.622,-2.334 -0.11,-0.466 -0.284,-1.41 -0.284,-1.41 -0.11,-0.54 0.794,-0.373 0.896,-0.095 l 0.979,2.67 c 0.3,0.817 2.043,1.854 1.86,0.947 0,0 -0.68,-1.868 -0.567,-2.82 0.042,-0.358 0.85,-1.159 1.208,-1.116 0.776,0.093 0.853,3.637 0.995,3.33 0.23,-0.495 -0.574,-4.23 -0.164,-4.59 0.445,-0.393 1.193,-0.484 1.756,-0.295 0.263,0.088 0.714,4.727 0.755,4.453 0.013,-0.09 -0.53,-5.397 1.616,-4.973 0.448,0.088 1.04,0.447 1.03,0.903 -0.01,0.346 -0.867,0.306 -0.812,0.647 0.15,0.925 0.348,1.955 0.26,2.932 -0.148,1.656 1.232,3.041 1.232,3.041 0.245,0.187 -0.144,-2.64 -0.144,-2.64 0,0 -0.225,-0.982 -0.222,-1.534 0.002,-0.438 0.215,-0.998 0.623,-1.16 0.216,-0.085 0.5,0.056 0.663,0.223 0.51,0.522 0.546,1.368 0.65,2.09 0.217,1.508 -0.005,3.047 -0.072,4.568 -0.055,1.238 0.13,2.536 -0.27,3.71 -0.22,0.64 -1.126,1.692 -1.126,1.692 -3.93,5.912 0.082,21.262 -2.827,19.318 -2,-1.336 -8.238,-1.098 -8.738,-0.432 z"
         id="left_arm"
         style="fill:#ffeeaa;fill-opacity:0;stroke:#000000;stroke-width:0.206;stroke-dasharray:160;stroke-dashoffset:160"
         inkscape:connector-curvature="0" />
      <path
         d="m 231.823,194.266 c -5.944,-2.952 -10.714,-8.436 -16.07,-12.659 -2.3,-1.198 -3.601,-1.749 -4.072,-1.76 0,0 -4.095,-0.452 -5.815,-1.472 -1.103,-0.655 -1.587,-2.056 -2.616,-2.82 -0.734,-0.547 -2.056,-0.39 -2.465,-1.208 -0.143,-0.287 -0.053,-0.726 0.18,-0.945 0.537,-0.502 1.484,-0.486 2.187,-0.274 1.297,0.391 1.39,1.417 3.08,2.65 0.746,0.544 -0.982,-1.595 -1.683,-2.195 -0.888,-0.762 -2.068,-1.096 -3.08,-1.685 -0.422,-0.246 -1.043,-0.328 -1.25,-0.772 -0.144,-0.313 -0.11,-0.8 0.153,-1.023 0.52,-0.438 1.373,-0.094 2.039,0.044 1.2,0.25 3.167,2.59 3.41,1.387 0.148,-0.737 -2.233,-1.413 -2.545,-2.144 -0.137,-0.32 -0.718,0.155 -1.044,0.031 -0.287,-0.11 -0.594,-0.335 -0.671,-0.633 a 0.946,0.946 0 0 1 0.287,-0.896 c 0.495,-0.417 1.292,-0.406 1.924,-0.266 1.38,0.305 2.162,2.14 3.567,2.297 0.246,0.027 0.38,0.038 0.134,0.057 -1.344,0.108 -1.944,-1.148 -2.621,-2.047 -0.515,-0.684 -1.723,-0.423 -2.38,-0.974 -0.3,-0.253 -0.808,-0.648 -0.63,-1 0.312,-0.613 1.377,-0.22 2.06,-0.139 0.759,0.091 1.426,0.623 2.187,0.693 1.444,0.131 2.529,3.178 3.022,2.444 0,0 -2.76,-1.898 -3.778,-3.31 -0.162,-0.223 -0.486,-0.587 -0.285,-0.775 1.01,-0.942 2.696,0.84 3.785,1.69 0.706,0.552 1.11,1.406 1.655,2.118 1.168,1.53 3.454,4.625 3.454,4.625 l 1.428,1.498 1.32,0.483 0.976,1.225 c 7.147,3.345 15.13,5.761 20.564,11.01 -5.37,1.06 -7.096,4.335 -6.407,6.745 z"
         id="right_arm"
         style="fill:#ffeeaa;fill-opacity:0;stroke:#000000;stroke-width:0.206;stroke-dasharray:190;stroke-dashoffset:190"
         inkscape:connector-curvature="0" />
      <path
         d="m 183.426,219.553 -1.598,-6.133 -0.287,-3.146 -0.904,-0.102 c 0.297,-1.66 0.785,-3.282 2.245,-4.72 2.928,-0.989 6.307,-0.22 9.74,0.76 l -0.63,4.783 2.579,2.305 2.885,-0.407 2.044,-2.7 3.803,-2.044 c 2.347,1.49 3.877,6.713 6.87,8.101 0,0 2.628,1.415 4.253,1.552 2.375,0.2 4.583,-0.725 6.45,-2.206 1.844,-1.464 3.597,-3.554 3.39,-5.9 -0.25,-2.842 -0.877,-8.254 -0.788,-8.287 l 6.382,-2.995 1.693,-4.213 0.259,-2.986 c 1.598,-2.02 3.399,-3.697 6.148,-3.758 -0.852,-1.07 2.16,1.79 3.716,3.166 l 1.176,3.602 0.207,4.1 0.16,3.974 -0.36,8.052 -1.587,2.742 -1.134,3.584 -2.133,1.646 -1.042,3.838 -8.18,8.327 -12.522,4.735 -5.57,-0.263 -10.6,-2.595 -2.58,-1.934 c -3.337,-0.12 -5.15,-3.026 -7.545,-4.867 l -4.028,-3.132 c -0.754,-0.913 -0.295,-1.146 -2.512,-2.879 z"
         id="shirt"
         style="fill:#0074d9;fill-opacity:0;stroke:#000000;stroke-width:0.206;stroke-dasharray:265;stroke-dashoffset:265"
         inkscape:connector-curvature="0" />
      <path
         id="ear"
         d="m 206.407,214.14 c -0.275,-0.03 -2.407,-2.56 -2.052,-2.69 0.042,-0.017 1.078,-1.22 1.812,0.016 0.977,1.817 0.713,2.727 0.24,2.673 z"
         style="fill:#ffeeaa;fill-opacity:0;stroke:#000000;stroke-width:0.206;stroke-dasharray:15;stroke-dashoffset:15"
         inkscape:connector-curvature="0" />
      <path
         d="m 205.523,211.285 c -0.98,-0.925 -5.755,-7.517 -5.02,-9.106 0.215,-0.46 0.742,-0.95 0.958,-1.416 0.08,-0.176 -0.962,-0.866 -0.976,-0.872 -0.534,-0.248 -0.526,-2.095 -0.505,-2.275 0.143,-1.27 1.289,-1.874 1.696,-2.753 1.052,-2.27 -0.83,-2.893 2.58,-4.143 2.534,-0.93 4.8,-3.295 7.44,-2.07 2.316,1.073 14.116,11.737 12.207,15.856 -0.307,0.663 0.689,2.008 0.35,2.741 -0.278,0.6 0.67,1.915 0.367,2.57 -0.742,1.602 -1.055,3.054 -1.855,4.78 -1.322,2.907 -7.73,4.697 -10.284,3.032 -2.767,-0.815 -3.593,-2.278 -5.535,-3.915"
         id="head"
         style="fill-opacity:0;stroke:#000000;stroke-width:0.206;stroke-dasharray:115;stroke-dashoffset:115"
         inkscape:connector-curvature="0" />
    </g>
  </g>
  <style
     id="style1014">#keyboard { opacity: 0; animation: opacity 1s linear forwards; animation-delay: 3s; } #left_arm { fill-opacity: 0; stroke-dasharray: 160; stroke-dashoffset: 160; animation: dash 5s linear forwards, fill-in 1s linear 2s forwards; } #right_arm { fill-opacity: 0; stroke-dasharray: 190; stroke-dashoffset: 190; animation: dash 5s linear forwards, fill-in 1s linear 2s forwards; } #shirt { fill-opacity: 0; stroke-dasharray: 265; stroke-dashoffset: 265; animation: dash 5s linear forwards, fill-in 1s linear 3s forwards; } #head { fill-opacity: 0; stroke-dasharray: 115; stroke-dashoffset: 115; animation: dash 5s linear forwards, fill-in 1s linear 3s forwards; } #ear { fill-opacity: 0; stroke-dasharray: 15; stroke-dashoffset: 15; animation: dash 5s linear forwards, fill-in 3s linear 3s forwards; } #chair { fill-opacity: 0; stroke-dasharray: 295; stroke-dashoffset: 295; animation: dash 5s linear forwards, fill-in 1s linear 3s forwards; } #laptop { stroke-dasharray: 215; stroke-dashoffset: 215; animation: dash 5s linear forwards; } #screen { fill-opacity: 0; stroke-dasharray: 150; stroke-dashoffset: 150; animation: dash 5s linear forwards, fill-in 1s linear 3s forwards; } #Wavy{ fill: #0074d9; } @keyframes dash { to { stroke-dashoffset: 0; } } @keyframes opacity { to { opacity: 1; } } @keyframes fill-in { to { fill-opacity: 1; } }</style>
</svg>
